<svg xmlns="http://www.w3.org/2000/svg" xmlns:xlink="http://www.w3.org/1999/xlink" viewBox="0 0 439.29 117.49"><defs><style>.cls-1{isolation:isolate;}.cls-2{fill:#00608d;}.cls-3{fill:url(#radial-gradient);}.cls-4{opacity:0.5;mix-blend-mode:multiply;}.cls-5{fill:url(#radial-gradient-2);}.cls-6{fill:#121212;}.cls-7{fill:url(#radial-gradient-3);}.cls-8{fill:url(#radial-gradient-4);}.cls-10,.cls-11,.cls-12,.cls-9{mix-blend-mode:screen;}.cls-9{fill:url(#linear-gradient);}.cls-10{fill:url(#linear-gradient-2);}.cls-11{fill:url(#linear-gradient-3);}.cls-12{fill:url(#linear-gradient-4);}.cls-13{fill:#fff;}.cls-14{fill:url(#linear-gradient-5);}</style><radialGradient id="radial-gradient" cx="52" cy="17.5" r="69.91" gradientUnits="userSpaceOnUse"><stop offset="0" stop-color="#00bff3"/><stop offset="1" stop-color="#005b91"/></radialGradient><radialGradient id="radial-gradient-2" cx="24.24" cy="40.19" r="38.7" xlink:href="#radial-gradient"/><radialGradient id="radial-gradient-3" cx="67.23" cy="51.24" r="60.15" gradientUnits="userSpaceOnUse"><stop offset="0.01" stop-color="#949494"/><stop offset="0.3" stop-color="#6f6f6f"/><stop offset="0.57" stop-color="#535353"/><stop offset="0.82" stop-color="#434343"/><stop offset="1" stop-color="#3d3d3d"/></radialGradient><radialGradient id="radial-gradient-4" cx="42.86" cy="64.74" r="17.89" xlink:href="#radial-gradient"/><linearGradient id="linear-gradient" x1="57.13" y1="36.42" x2="57.03" y2="55.88" gradientTransform="matrix(0.77, -0.64, 0.51, 0.62, -23.47, 75.16)" gradientUnits="userSpaceOnUse"><stop offset="0.01" stop-color="#c9c5c4"/><stop offset="0.12" stop-color="#9c9998"/><stop offset="0.27" stop-color="#656362"/><stop offset="0.41" stop-color="#393838"/><stop offset="0.54" stop-color="#1a1919"/><stop offset="0.64" stop-color="#070707"/><stop offset="0.72"/></linearGradient><linearGradient id="linear-gradient-2" x1="15.58" y1="33.74" x2="63.26" y2="33.74" gradientUnits="userSpaceOnUse"><stop offset="0"/><stop offset="0.47" stop-color="#fff"/><stop offset="1"/></linearGradient><linearGradient id="linear-gradient-3" x1="-4.22" y1="37.37" x2="34.81" y2="37.37" gradientTransform="translate(12.2 13.42) rotate(-15.42)" xlink:href="#linear-gradient-2"/><linearGradient id="linear-gradient-4" x1="223.21" y1="127.07" x2="299.21" y2="127.07" gradientTransform="matrix(-0.22, 0.97, -0.97, -0.22, 247.68, -172.39)" xlink:href="#linear-gradient-2"/><linearGradient id="linear-gradient-5" x1="360.05" y1="22.83" x2="383.61" y2="87.58" xlink:href="#radial-gradient"/></defs><title>LOGO</title><g class="cls-1"><g id="Calque_1" data-name="Calque 1"><path class="cls-2" d="M104.62,63.43c0-23.35-23.42-42.29-52.31-42.29S0,40.08,0,63.43c0,16.08,11.1,30.06,27.44,37.21-13.75-6.78-22.94-19-22.94-33C4.5,46.29,25.91,29,52.31,29s47.81,17.31,47.81,38.65c0,14-9.19,26.23-22.94,33C93.52,93.49,104.62,79.51,104.62,63.43Z"/><path class="cls-3" d="M104.62,62.45c0-24-23.42-43.4-52.31-43.4S0,38.48,0,62.45C0,79,11.1,93.3,27.44,100.64,13.69,93.68,4.5,81.11,4.5,66.77,4.5,44.86,25.91,27.1,52.31,27.1s47.81,17.76,47.81,39.67c0,14.34-9.19,26.91-22.94,33.87C93.52,93.3,104.62,79,104.62,62.45Z"/><g class="cls-4"><path class="cls-2" d="M57.29,19.25a56.23,56.23,0,0,1,6,8.91,54,54,0,0,1,9.5,2.75,72.17,72.17,0,0,0-5-9.94A63.19,63.19,0,0,0,57.29,19.25Z"/></g><path class="cls-2" d="M15.68,80.92c-5-10.32,3.13-26.62,18.25-36.38s31.46-9.31,36.5,1c3.3,6.77.94,16.08-5.33,24.46C72.76,60.51,75.81,49.64,72,41.86c-5.52-11.3-23.39-11.8-39.94-1.12S6.6,69.26,12.11,80.56C15.91,88.34,25.56,91,36.6,88.42,27.13,90.22,19,87.69,15.68,80.92Z"/><path class="cls-5" d="M15.38,80.29c-5.25-10.78,2.71-27.52,17.78-37.38S64.72,33.81,70,44.6c3.45,7.07,1.22,16.68-5,25.24,7.56-9.72,10.45-20.92,6.49-29.05C65.76,29,47.72,28.17,31.23,39S6,68.05,11.78,79.86c4,8.12,13.74,11,24.82,8.56C27.08,90.12,18.83,87.36,15.38,80.29Z"/><path class="cls-6" d="M8.89,38.23C12.32,23.15,20.38,11.35,31.38,7.55c18.36-6.33,38,12,43.8,41S70.86,106.1,52.5,112.43c-12,4.15-24.57-2.28-33.45-15.35,9.76,15.79,24.24,23.82,38.06,19C77.2,109.19,88.3,77.88,81.92,46.19S54.08-5.56,34,1.37C21.15,5.8,12,20.2,8.7,38.29l0,.19Z"/><path class="cls-7" d="M8.89,38.23C12.38,23.15,20.56,11.35,31.74,7.55c18.65-6.33,38.57,12,44.5,41s-4.39,57.58-23,63.91c-12.21,4.15-25-2.28-34-15.35,9.91,15.79,24.62,23.82,38.66,19,20.41-6.93,31.69-38.24,25.21-69.93S54.8-5.56,34.4,1.37C21.35,5.8,12,20.2,8.7,38.29l0,.19Z"/><path class="cls-8" d="M30.68,82c4.21,5.18,14.45,3.83,22.88-3s11.83-16.6,7.62-21.78-14.45-3.83-22.87,3S26.47,76.85,30.68,82Z"/><path class="cls-9" d="M55.06,58c2.76,3.32.1,10.09-6,15.12s-13.18,6.42-15.94,3.1-.1-10.08,5.95-15.11S52.3,54.71,55.06,58Z"/><path class="cls-10" d="M15.58,41.09S33,20.3,63.26,28.16C63.26,28.16,35.28,23.47,15.58,41.09Z"/><path class="cls-11" d="M19.67,56.37s9.24-20.19,34.81-20.58C54.48,35.79,31.38,38.18,19.67,56.37Z"/><path class="cls-12" d="M57.58,13S94.11,44.67,71.71,94.24C71.71,94.24,92.61,50.34,57.58,13Z"/><path class="cls-13" d="M264,64.28C264,84,250,91.33,220.54,91.33H185.9V26.16h34.64c29,0,43.41,9.05,43.41,27.53ZM208,82.09h13.36c15.38,0,20.28-7.12,20.28-17.81V53.79c0-10.59-4.61-18.39-21.72-18.39H208Z"/><path class="cls-13" d="M354.33,64.67c0,18.29-13.8,27.24-40.25,27.24h-3.59c-26.89,0-40.25-9-40.25-27.24V53.5c0-18.68,13.36-27.92,40.25-27.92h3.59c26.45,0,40.25,9.24,40.25,27.92ZM332.05,53.5c0-12.51-6.34-18.87-18.56-18.87h-2.41c-12.37,0-18.71,6.36-18.71,18.87V64.67c0,5.29.87,9.43,3,12.32,2.45,3.66,8.36,5.87,15.69,5.87h2.41c7,0,12.81-2.21,15.54-6,1.87-2.89,3-7,3-12.22Z"/><path class="cls-13" d="M439.29,91.33h-25L394,70.44c-1.17,1.19,1-24,1.44-23.49,5.32-5.48,11.21-11.64,16.68-17,2.58-3.08,5.6-3.76,11.49-3.76h14.09L407,57.64v.58Z"/><path class="cls-14" d="M407,57.64v.58S380.21,84.5,373.31,91.33H350.74L382.8,59.47v-.58L350.89,26.16h17c6,0,7.91.58,10.93,3.76C384,35,407,57.64,407,57.64Z"/><path class="cls-13" d="M152.53,82.09c-13.66,0-16-1.32-16-10.18V62.09h31V52.76h-31V35.4h39.58V26.16H114.58V71.91c0,14.64,4.88,19.42,37.08,19.42h25.09V82.09Z"/></g></g></svg>